<?xml version="1.0" standalone="no"?>
<!DOCTYPE svg PUBLIC "-//W3C//DTD SVG 1.1//EN" "http://www.w3.org/Graphics/SVG/1.1/DTD/svg11.dtd" >
<svg xmlns="http://www.w3.org/2000/svg">
<metadata></metadata>
<defs>
<font id="daxlinepro-regularregular" horiz-adv-x="1157" >
<font-face units-per-em="2048" ascent="1587" descent="-461" />
<missing-glyph horiz-adv-x="555" />
<glyph unicode="&#xfb01;" horiz-adv-x="1206" d="M74 975v129h155v149q0 175 106 266t275 91q39 0 49 -2v-138h-22q-109 0 -175.5 -53.5t-66.5 -163.5v-149h244v-129h-244v-975h-166v975h-155zM854 1415q0 43 31.5 73t75.5 30t76 -30t32 -73t-32 -72.5t-76 -29.5t-75.5 29.5t-31.5 72.5zM877 0v1104h170v-1104h-170z" />
<glyph unicode="&#xfb02;" horiz-adv-x="1230" d="M74 975v129h155v149q0 175 106 266t275 91q39 0 49 -2v-138h-22q-109 0 -175.5 -53.5t-66.5 -163.5v-149h244v-129h-244v-975h-166v975h-155zM901 0v1608h172v-1608h-172z" />
<glyph horiz-adv-x="0" />
<glyph horiz-adv-x="0" />
<glyph horiz-adv-x="682" />
<glyph unicode="&#xd;" horiz-adv-x="555" />
<glyph unicode=" "  horiz-adv-x="555" />
<glyph unicode="&#x09;" horiz-adv-x="555" />
<glyph unicode="&#xa0;" horiz-adv-x="555" />
<glyph unicode="!" horiz-adv-x="563" d="M164 104q0 50 35 84.5t84 34.5t82.5 -34.5t33.5 -84.5t-33.5 -84t-82.5 -34q-50 0 -84.5 34.5t-34.5 83.5zM182 1483h199l-25 -1006h-149z" />
<glyph unicode="&#x22;" horiz-adv-x="907" d="M160 1454q30 43 84 43q56 0 86 -43l-33 -614h-107zM578 1454q30 43 86 43q54 0 84 -43l-31 -614h-107z" />
<glyph unicode="#" horiz-adv-x="1562" d="M145 432v123h279l55 389h-258v123h277l59 416h137l-59 -416h379l59 416h137l-57 -416h258v-123h-278l-56 -389h258v-123h-276l-60 -432h-139l62 432h-379l-62 -432h-137l62 432h-261zM561 555h379l55 389h-379z" />
<glyph unicode="$" horiz-adv-x="1196" d="M139 55l66 150q56 -28 146.5 -49t160.5 -21q165 0 258.5 65t93.5 189q0 45 -17.5 84t-42.5 66.5t-67.5 54.5t-77.5 43.5t-88 38.5q-50 21 -86 37.5t-82 41.5t-78.5 49t-66.5 57.5t-55 69t-34 81t-13 96.5q0 164 108.5 267t290.5 124l-6 295h145l-24 -289q180 -6 313 -78 l-61 -141q-49 27 -126 47.5t-151 20.5q-147 0 -229 -61.5t-82 -176.5q0 -44 19 -83.5t45.5 -67t72 -55.5t81.5 -45t91 -40q48 -20 81 -35.5t78 -40t76 -47.5t64.5 -56.5t53.5 -69t33 -81.5t13 -98q0 -174 -119.5 -283t-320.5 -130l8 -310h-149l26 303q-86 3 -184 25t-164 53 z" />
<glyph unicode="%" horiz-adv-x="1976" d="M139 1042q0 210 84.5 336.5t241.5 126.5t240 -126t83 -337t-83 -336.5t-240 -125.5t-241.5 126t-84.5 336zM281 1044q0 -160 46.5 -249.5t137.5 -89.5t137.5 89.5t46.5 249.5t-47 250t-137 90t-137 -90t-47 -250zM655 18l547 1483l119 -37l-549 -1482zM1186 440 q0 210 84 336.5t241 126.5t241.5 -126.5t84.5 -336.5t-84.5 -336.5t-241.5 -126.5t-241 126.5t-84 336.5zM1327 442q0 -160 47 -250t137 -90q91 0 138 90t47 250t-47 250t-138 90q-90 0 -137 -90t-47 -250z" />
<glyph unicode="&#x26;" horiz-adv-x="1462" d="M113 387q0 155 91 257t245 147v4q-135 35 -203 124t-68 207q0 171 124.5 275t338.5 104q184 0 336 -78l-57 -135q-50 28 -123.5 46t-141.5 18q-144 0 -224.5 -61.5t-80.5 -180.5q0 -111 77.5 -177.5t199.5 -66.5q80 0 170 15l565 98l22 -137l-266 -43v-748 q-74 -32 -191.5 -55t-238.5 -23q-273 0 -424 102t-151 308zM287 397q0 -280 405 -280q66 0 141 12t117 27v618l-301 -49q-362 -58 -362 -328z" />
<glyph unicode="'" horiz-adv-x="489" d="M160 1454q30 43 84 43q56 0 86 -43l-33 -614h-107z" />
<glyph unicode="(" horiz-adv-x="761" d="M135 608q0 205 57.5 399t146 344.5t216.5 305.5l129 -78q-365 -473 -365 -971q0 -500 365 -973l-129 -77q-95 114 -167 227t-131 243.5t-90.5 277t-31.5 302.5z" />
<glyph unicode=")" horiz-adv-x="761" d="M78 -365q364 472 364 973q0 499 -364 971l129 78q128 -155 216.5 -305.5t146 -344.5t57.5 -399q0 -156 -31.5 -302.5t-90.5 -277t-131 -243.5t-167 -227z" />
<glyph unicode="*" horiz-adv-x="1210" d="M143 1260q0 29 16 53.5t44 36.5l354 -138l-20 383q28 35 77 35q50 0 78 -35l-18 -383l352 138q28 -12 44.5 -36.5t16.5 -53.5q0 -30 -14 -52l-371 -98l240 -295q-3 -37 -32.5 -65.5t-65.5 -28.5q-21 0 -27 4l-203 315l-200 -315q-6 -4 -27 -4q-36 0 -65.5 28.5 t-32.5 65.5l239 295l-370 98q-15 24 -15 52z" />
<glyph unicode="+" d="M145 596v139h359v369h149v-369h359v-139h-359v-369h-149v369h-359z" />
<glyph unicode="," horiz-adv-x="516" d="M18 -346l177 508q44 61 114 61q73 0 84 -61l-250 -508h-125z" />
<glyph unicode="-" horiz-adv-x="841" d="M143 590v151h555v-151h-555z" />
<glyph unicode="." horiz-adv-x="516" d="M139 104q0 50 34.5 84.5t84.5 34.5t84.5 -34.5t34.5 -84.5q0 -49 -34.5 -83.5t-84.5 -34.5t-84.5 34.5t-34.5 83.5z" />
<glyph unicode="/" horiz-adv-x="942" d="M8 -350l690 1984l160 -51l-690 -1984z" />
<glyph unicode="0" horiz-adv-x="1193" d="M117 553q0 123 31 226.5t89.5 181t151 121.5t209.5 44t209 -43.5t150.5 -121.5t89 -181.5t30.5 -226.5q0 -165 -52 -293t-162 -205.5t-265 -77.5t-265.5 77.5t-163 205.5t-52.5 293zM291 555q0 -198 77.5 -316t229.5 -118q151 0 228 117.5t77 316.5q0 198 -77 315 t-228 117q-152 0 -229.5 -117t-77.5 -315z" />
<glyph unicode="1" horiz-adv-x="849" d="M61 891q132 24 268 85.5t193 127.5h137v-1104h-174v897q-62 -42 -174.5 -82t-220.5 -61z" />
<glyph unicode="2" horiz-adv-x="1017" d="M55 0l514 545q43 46 68.5 77t47.5 75t22 83q0 92 -64.5 146.5t-189.5 54.5q-152 0 -295 -68l-54 136q73 34 174 55.5t197 21.5q202 0 305 -90.5t103 -238.5q0 -147 -174 -314l-349 -338h564v-145h-869z" />
<glyph unicode="3" horiz-adv-x="1001" d="M37 -272l57 135q60 -28 140 -46t153 -18q156 0 251 74.5t95 204.5q0 141 -113 214t-296 73h-37v129q169 12 280 86.5t111 187.5q0 103 -69.5 158t-196.5 55q-69 0 -146 -19t-139 -49l-55 136q72 35 169.5 56t188.5 21q200 0 310 -92.5t110 -253.5q0 -79 -43.5 -148 t-104.5 -112t-131 -65v-4q65 -16 120 -43t106 -70.5t80.5 -111t29.5 -150.5q0 -189 -139.5 -306.5t-366.5 -117.5q-94 0 -192.5 20.5t-171.5 55.5z" />
<glyph unicode="4" horiz-adv-x="1202" d="M104 0v129l656 975h188v-977h154v-127h-154v-326h-160v326h-684zM262 127h533v625l4 194h-4q-46 -88 -101 -172z" />
<glyph unicode="5" horiz-adv-x="1019" d="M55 -272l56 135q52 -26 137.5 -45t161.5 -19q152 0 246 79t94 210q0 145 -100 227t-312 82q-83 0 -201 -16l78 723h672v-146h-525l-49 -434q32 4 80 4q260 0 395.5 -115t135.5 -321q0 -205 -142.5 -322.5t-365.5 -117.5q-96 0 -193 22t-168 54z" />
<glyph unicode="6" horiz-adv-x="1193" d="M117 520q0 156 55 303t155 270t249.5 216.5t330.5 140.5l47 -141q-232 -61 -387.5 -194t-226.5 -310q115 49 254 49q222 0 352.5 -113t130.5 -315q0 -90 -34 -171.5t-94.5 -143t-150 -98t-194.5 -36.5q-120 0 -214.5 43.5t-153 118.5t-89 172t-30.5 209zM283 520 q0 -176 84 -288.5t237 -112.5q135 0 220 91t85 216q0 146 -91.5 223.5t-244.5 77.5q-64 0 -142.5 -15t-131.5 -38q-16 -68 -16 -154z" />
<glyph unicode="7" horiz-adv-x="1089" d="M84 958v146h932l-635 -1430h-193l590 1284h-694z" />
<glyph unicode="8" horiz-adv-x="1193" d="M117 348q0 63 18.5 117t47 92.5t75 74.5t89.5 60t104 53q-68 33 -115.5 63.5t-90.5 73t-65 97t-22 121.5q0 156 119.5 254t320.5 98t319.5 -98t118.5 -254q0 -67 -22 -121.5t-65 -97t-90.5 -73t-115.5 -63.5q61 -29 104 -53t89.5 -60t75 -74.5t47 -92.5t18.5 -117 q0 -165 -132.5 -268t-346.5 -103q-215 0 -348 103t-133 268zM283 354q0 -109 86.5 -176t228.5 -67t227.5 67t85.5 176q0 37 -9.5 70t-23 58.5t-39.5 50.5t-47.5 41.5t-59.5 37.5t-63.5 33t-70.5 33q-46 -21 -70.5 -33t-63.5 -33t-60.5 -37.5t-48 -41.5t-40 -50.5t-23 -58.5 t-9.5 -70zM319 1098q0 -44 15.5 -82t37.5 -64t63.5 -54t74 -45t88.5 -44q55 26 88 43.5t73.5 45t62 54t37 64.5t15.5 82q0 104 -71 164.5t-205 60.5t-206.5 -61t-72.5 -164z" />
<glyph unicode="9" horiz-adv-x="1193" d="M117 678q0 90 34 171.5t94.5 142.5t150 97.5t194.5 36.5q120 0 214.5 -43t153 -118.5t89 -172t30.5 -208.5q0 -156 -55 -303t-155 -270t-249.5 -216.5t-330.5 -140.5l-47 141q232 61 387.5 194t226.5 310q-115 -49 -254 -49q-222 0 -352.5 113t-130.5 315zM285 680 q0 -147 91.5 -225t244.5 -78q63 0 141.5 16t132.5 39q16 68 16 154q0 176 -84 287.5t-237 111.5q-135 0 -220 -90t-85 -215z" />
<glyph unicode=":" horiz-adv-x="573" d="M168 104q0 50 35 84.5t84 34.5t84 -34.5t35 -84.5q0 -49 -34.5 -83.5t-84.5 -34.5t-84.5 34.5t-34.5 83.5zM168 766q0 50 35 84.5t84 34.5t84 -34.5t35 -84.5t-35 -84.5t-84 -34.5t-84 34.5t-35 84.5z" />
<glyph unicode=";" horiz-adv-x="573" d="M39 -346l176 508q44 61 115 61q73 0 84 -61l-250 -508h-125zM172 766q0 50 35 84.5t84 34.5t84 -34.5t35 -84.5t-35 -84.5t-84 -34.5t-84 34.5t-35 84.5z" />
<glyph unicode="&#x3c;" d="M145 606v119l867 422v-162l-703 -319l703 -320v-162z" />
<glyph unicode="=" d="M145 389v137h867v-137h-867zM145 805v137h867v-137h-867z" />
<glyph unicode="&#x3e;" d="M145 184v162l703 320l-703 319v162l867 -422v-119z" />
<glyph unicode="?" horiz-adv-x="978" d="M63 1427q68 35 166.5 56.5t196.5 21.5q216 0 334.5 -98.5t118.5 -273.5q0 -73 -32.5 -139.5t-85.5 -114.5t-111.5 -81.5t-119.5 -54.5l-10 -266h-143l-15 357q67 17 125 43t106.5 61.5t76.5 84t28 103.5q0 111 -72.5 172.5t-215.5 61.5q-73 0 -152 -19t-135 -47zM330 104 q0 50 35 84.5t84 34.5t83.5 -34.5t34.5 -84.5t-34.5 -84t-83.5 -34q-50 0 -84.5 34.5t-34.5 83.5z" />
<glyph unicode="@" horiz-adv-x="2115" d="M125 518q0 205 68 385t192.5 313.5t311.5 211t413 77.5q175 0 321 -44t248 -120.5t173.5 -181t105 -224.5t33.5 -251q0 -178 -57 -315.5t-158 -222t-232.5 -127t-288.5 -42.5q-296 0 -460 146t-164 416q0 247 132 390.5t355 143.5q198 0 320 -102v-842q399 95 399 555 q0 113 -26.5 213.5t-83.5 188t-141 150.5t-206 99.5t-270 36.5q-193 0 -351 -66t-262.5 -181.5t-161 -271t-56.5 -335.5q0 -144 37 -270.5t114 -232.5t187.5 -182t264.5 -118.5t339 -42.5q187 0 350.5 50t279.5 131l74 -115q-280 -201 -704 -201q-210 0 -387.5 48.5 t-307 137t-220.5 210.5t-136 270t-45 315zM784 539q0 -214 120.5 -321t340.5 -107h43v792q-71 43 -174 43q-154 0 -242 -107t-88 -300z" />
<glyph unicode="A" horiz-adv-x="1343" d="M41 0l530 1483h203l529 -1483h-185l-151 432h-590l-150 -432h-186zM418 567h508l-207 600q-12 36 -23 78.5t-16 66.5l-6 25h-4q-18 -90 -45 -170z" />
<glyph unicode="B" horiz-adv-x="1243" d="M166 55v1372q76 35 184 56.5t221 21.5q247 0 380.5 -105.5t133.5 -281.5q0 -135 -76.5 -226.5t-174.5 -115.5v-4q52 -13 101 -40t96.5 -71t76.5 -113.5t29 -154.5q0 -195 -147 -305.5t-412 -110.5q-108 0 -225 22.5t-187 55.5zM334 154q105 -37 244 -37q185 0 284 73 t99 211q0 169 -138 244q-54 29 -109.5 40t-154.5 11h-225v-542zM334 827h217q105 0 160.5 13t105.5 49q45 33 71.5 91t26.5 126q0 122 -89.5 191t-254.5 69q-139 0 -237 -37v-502z" />
<glyph unicode="C" horiz-adv-x="1105" d="M117 741q0 189 46 337.5t126 240.5t183.5 139t223.5 47q96 0 180.5 -21.5t137.5 -56.5l-60 -143q-39 28 -103.5 47t-137.5 19q-87 0 -161 -37t-131 -109.5t-89.5 -190.5t-32.5 -270t32.5 -270t89.5 -191t131 -110t161 -37q73 0 137.5 19t103.5 47l60 -146 q-53 -35 -137 -56.5t-181 -21.5q-120 0 -223.5 47t-183.5 139t-126 240.5t-46 337.5z" />
<glyph unicode="D" horiz-adv-x="1302" d="M162 55v1372q156 78 385 78q140 0 256.5 -48.5t202.5 -141.5t134 -240t48 -334t-48 -334t-134 -240t-202.5 -141.5t-256.5 -48.5q-114 0 -218 22t-167 56zM340 164q68 -35 215 -35q97 0 178 36t143.5 108.5t98 192t35.5 275.5t-35.5 275.5t-98 192t-143.5 109t-178 36.5 q-143 0 -215 -35v-1155z" />
<glyph unicode="E" horiz-adv-x="1032" d="M162 0v1483h768v-152h-594v-495h547v-148h-547v-536h594v-152h-768z" />
<glyph unicode="F" horiz-adv-x="1003" d="M162 0v1483h753v-152h-579v-495h532v-148h-532v-688h-174z" />
<glyph unicode="G" horiz-adv-x="1318" d="M117 741q0 182 51 328.5t141 241t210.5 144.5t262.5 50q108 0 205 -21.5t154 -56.5l-62 -139q-108 64 -293 64q-101 0 -188.5 -37t-156.5 -109.5t-108.5 -192t-39.5 -272.5t38.5 -273t105 -192.5t149 -109.5t176.5 -37q75 0 140.5 11t92.5 26v532h-315v140h485v-783 q-59 -34 -163 -56t-230 -22q-140 0 -259 50.5t-207.5 145t-138.5 240.5t-50 328z" />
<glyph unicode="H" horiz-adv-x="1308" d="M162 0v1483h178v-647h629v647h178v-1483h-178v688h-629v-688h-178z" />
<glyph unicode="I" horiz-adv-x="507" d="M166 0v1483h176v-1483h-176z" />
<glyph unicode="J" horiz-adv-x="507" d="M-137 -291q303 90 303 455v1319h176v-1319q0 -518 -479 -613v158z" />
<glyph unicode="K" horiz-adv-x="1179" d="M166 0v1483h176v-686h4l582 686h207l-600 -705l614 -778h-209l-594 760h-4v-760h-176z" />
<glyph unicode="L" horiz-adv-x="970" d="M166 0v1483h176v-1331h557v-152h-733z" />
<glyph unicode="M" horiz-adv-x="1777" d="M109 0l196 1483h211l328 -1065q11 -36 22 -80.5t16 -71.5l5 -26h4q18 96 43 178l328 1065h211l196 -1483h-166l-139 1112l-18 180h-5q-20 -96 -45 -180l-342 -1112h-131l-342 1112q-11 37 -22.5 82t-16.5 72l-6 26h-4q-6 -96 -16 -180l-142 -1112h-165z" />
<glyph unicode="N" horiz-adv-x="1409" d="M162 0v1483h174l668 -1067q21 -33 42.5 -73.5t32.5 -64.5l11 -24h4q-2 98 -2 186v1043h155v-1483h-166l-678 1087q-21 34 -42.5 74.5t-32.5 64.5l-11 23h-4q4 -94 4 -180v-1069h-155z" />
<glyph unicode="O" horiz-adv-x="1368" d="M117 741q0 160 36 297.5t105 242.5t178.5 164.5t247.5 59.5t247.5 -59.5t178.5 -164.5t105 -242.5t36 -297.5t-36 -297.5t-105 -242.5t-178.5 -164.5t-247.5 -59.5t-247.5 59.5t-178.5 164.5t-105 242.5t-36 297.5zM293 741q0 -174 43 -309t133 -216t215 -81t215 81 t133 216t43 309t-43 309t-133 216.5t-215 81.5t-215 -81.5t-133 -216.5t-43 -309z" />
<glyph unicode="P" horiz-adv-x="1165" d="M162 0v1427q162 78 389 78q252 0 390 -121t138 -331q0 -201 -149.5 -324t-419.5 -123q-110 0 -172 12v-618h-176zM338 760q62 -12 166 -12q192 0 296.5 82.5t104.5 224.5q0 152 -90.5 230.5t-261.5 78.5q-129 0 -215 -35v-569z" />
<glyph unicode="Q" horiz-adv-x="1368" d="M117 741q0 160 36 297.5t105 242.5t178.5 164.5t247.5 59.5t247.5 -59.5t178.5 -164.5t105 -242.5t36 -297.5q0 -217 -65.5 -391t-190.5 -270l258 -356l-135 -107l-260 389q-85 -29 -174 -29q-138 0 -247.5 59.5t-178.5 164.5t-105 242.5t-36 297.5zM293 741 q0 -174 43 -309t133 -216t215 -81t215 81t133 216t43 309t-43 309t-133 216.5t-215 81.5t-215 -81.5t-133 -216.5t-43 -309z" />
<glyph unicode="R" horiz-adv-x="1234" d="M166 0v1425q79 37 185 58.5t214 21.5q252 0 387 -114.5t135 -305.5q0 -168 -92 -261.5t-250 -121.5v-4q101 -49 175 -200l241 -498h-188l-232 483q-39 84 -100 126t-152 42h-151v-651h-172zM338 784h194q187 0 285 69.5t98 225.5q0 134 -87.5 210.5t-260.5 76.5 q-144 0 -229 -37v-545z" />
<glyph unicode="S" horiz-adv-x="1062" d="M98 55l62 154q56 -30 133.5 -51t155.5 -21q144 0 232.5 68.5t88.5 189.5q0 54 -21 97.5t-63.5 77.5t-83 56.5t-102.5 49.5q-56 25 -93.5 44t-87.5 48.5t-82.5 61t-63 72.5t-45.5 92t-15 110q0 184 125.5 292.5t330.5 108.5q97 0 182.5 -22t141.5 -56l-59 -145 q-49 28 -119.5 49t-139.5 21q-127 0 -205.5 -64t-78.5 -176q0 -42 17.5 -80t42 -65.5t66.5 -55t76 -44.5t85 -40q46 -20 76 -35t73 -39.5t71 -47t59.5 -55.5t50 -68t30.5 -81t12 -98q0 -194 -136 -310t-359 -116q-100 0 -196 21.5t-161 56.5z" />
<glyph unicode="T" horiz-adv-x="1048" d="M68 1331v152h913v-152h-369v-1331h-176v1331h-368z" />
<glyph unicode="U" horiz-adv-x="1286" d="M162 424v1059h178v-1059q0 -133 86.5 -212t216.5 -79t216.5 79t86.5 212v1059h178v-1059q0 -204 -136.5 -324t-344.5 -120t-344.5 120t-136.5 324z" />
<glyph unicode="V" horiz-adv-x="1255" d="M55 1483h191l329 -1098q12 -40 24.5 -90.5t18.5 -80.5l7 -30h4q22 111 49 201l332 1098h190l-479 -1483h-189z" />
<glyph unicode="W" horiz-adv-x="1859" d="M78 1483h178l254 -1080q9 -39 18 -88t14 -79l5 -29h4q17 108 37 196l264 1080h156l264 -1080q9 -39 18 -88t14 -79l5 -29h4q17 108 37 196l254 1080h178l-375 -1483h-178l-260 1049q-10 42 -19.5 92t-13.5 79l-4 29h-4q-14 -106 -37 -200l-260 -1049h-178z" />
<glyph unicode="X" horiz-adv-x="1198" d="M49 0l447 768l-416 715h192l326 -574h4l324 574h194l-415 -715l444 -768h-195l-352 625h-4l-354 -625h-195z" />
<glyph unicode="Y" horiz-adv-x="1214" d="M47 1483h193l366 -711h4l365 711h192l-471 -889v-594h-178v594z" />
<glyph unicode="Z" horiz-adv-x="1056" d="M59 0l648 1331h-609v152h860l-647 -1331h652v-152h-904z" />
<glyph unicode="[" horiz-adv-x="745" d="M180 -399v2007h457v-138h-289v-1732h289v-137h-457z" />
<glyph unicode="\" horiz-adv-x="942" d="M84 1583l162 51l688 -1984l-160 -51z" />
<glyph unicode="]" horiz-adv-x="745" d="M109 -262h288v1732h-288v138h456v-2007h-456v137z" />
<glyph unicode="^" horiz-adv-x="1193" d="M176 971l336 405q30 41 86 41q54 0 84 -41l336 -405l-109 -90l-311 379l-313 -379z" />
<glyph unicode="_" horiz-adv-x="1200" d="M-8 -281h1216v-127h-1216v127z" />
<glyph unicode="`" horiz-adv-x="632" d="M94 1501q6 22 27 34.5t49 12.5q60 0 104 -47l152 -266h-127z" />
<glyph unicode="a" horiz-adv-x="1081" d="M96 315q0 66 20.5 119.5t54 91t86.5 66t107 46t127.5 30t135.5 18.5t143 10v84q0 116 -68.5 165.5t-193.5 49.5q-74 0 -159 -19.5t-142 -47.5l-45 121q69 32 166.5 54.5t193.5 22.5q410 0 410 -360v-711q-60 -33 -167 -55.5t-214 -22.5q-223 0 -339 89t-116 249zM258 319 q0 -99 73.5 -156t215.5 -57q62 0 127.5 10.5t95.5 24.5v437q-82 -5 -125.5 -8.5t-114.5 -13.5t-110 -27t-81.5 -44t-61.5 -69t-19 -97z" />
<glyph unicode="b" horiz-adv-x="1136" d="M150 55v1553h172v-537q103 49 229 49q216 0 347.5 -147.5t131.5 -399.5q0 -152 -39 -268t-110.5 -187t-167 -106t-213.5 -35q-97 0 -190 22t-160 56zM322 152q72 -35 186 -35q158 0 254 110t96 336q0 196 -89.5 309t-240.5 113q-121 0 -206 -45v-788z" />
<glyph unicode="c" horiz-adv-x="942" d="M109 553q0 146 40 259.5t108.5 180t150.5 100t174 33.5q164 0 274 -75l-59 -125q-80 57 -197 57q-62 0 -116.5 -24t-100 -73t-72 -134.5t-26.5 -196.5t27 -197t72.5 -135.5t100 -74.5t115.5 -25q114 0 197 59l59 -129q-110 -76 -274 -76q-73 0 -140 20.5t-128 66 t-106.5 111t-72 163t-26.5 215.5z" />
<glyph unicode="d" horiz-adv-x="1136" d="M109 539q0 260 133.5 417.5t375.5 157.5q114 0 199 -29v523h170v-1553q-53 -31 -152 -54.5t-202 -23.5q-249 0 -386.5 151t-137.5 411zM279 539q0 -195 92 -308.5t260 -113.5q50 0 105.5 11t80.5 24v800q-25 11 -80.5 19t-105.5 8q-168 0 -260 -121.5t-92 -318.5z" />
<glyph unicode="e" horiz-adv-x="1138" d="M109 553q0 258 129.5 415.5t351.5 157.5q204 0 322 -126t118 -347q0 -46 -2 -73l-754 -109q13 -174 111 -264t260 -90q83 0 164 18t137 49l53 -129q-62 -35 -159 -56.5t-203 -21.5q-248 0 -388 152.5t-140 423.5zM264 590l602 86q-1 158 -75.5 238.5t-202.5 80.5 q-146 0 -233.5 -109t-90.5 -296z" />
<glyph unicode="f" horiz-adv-x="714" d="M74 975v129h155v149q0 175 106 266t275 91q39 0 49 -2v-138h-22q-109 0 -175.5 -53.5t-66.5 -163.5v-149h244v-129h-244v-975h-166v975h-155z" />
<glyph unicode="g" horiz-adv-x="1136" d="M109 567q0 142 39.5 250t111.5 175t167.5 100.5t211.5 33.5q204 0 348 -77v-1053q0 -218 -119.5 -337.5t-335.5 -119.5q-103 0 -201.5 23.5t-166.5 58.5l53 135q57 -30 139 -50.5t164 -20.5q148 0 223.5 80t75.5 231v94q-100 -49 -237 -49q-212 0 -342.5 139.5 t-130.5 386.5zM279 573q0 -192 89.5 -294.5t239.5 -102.5q57 0 116 11.5t95 31.5v735q-76 35 -190 35q-75 0 -137 -23.5t-110.5 -72t-75.5 -130t-27 -190.5z" />
<glyph unicode="h" horiz-adv-x="1144" d="M150 0v1608h172v-551q126 65 262 65q193 0 302 -95t109 -271v-756h-170v743q0 119 -72.5 179.5t-201.5 60.5q-128 0 -229 -61v-922h-172z" />
<glyph unicode="i" horiz-adv-x="487" d="M135 1432q0 43 32.5 74.5t76.5 31.5t76 -31.5t32 -74.5t-32 -74t-76 -31t-76.5 31t-32.5 74zM160 0v1104h170v-1104h-170z" />
<glyph unicode="j" horiz-adv-x="487" d="M-106 -307q118 39 192 143.5t74 280.5v987h170v-987q0 -107 -23.5 -195.5t-63 -150.5t-96.5 -108.5t-119 -73.5t-134 -42v146zM135 1432q0 43 32.5 74.5t76.5 31.5t76 -31.5t32 -74.5t-32 -74t-76 -31t-76.5 31t-32.5 74z" />
<glyph unicode="k" horiz-adv-x="1064" d="M156 0v1608h168v-1010h4l477 506h205l-496 -522l524 -582h-202l-508 567h-4v-567h-168z" />
<glyph unicode="l" horiz-adv-x="487" d="M160 0v1608h170v-1608h-170z" />
<glyph unicode="m" horiz-adv-x="1767" d="M150 0v1049q181 77 380 77q123 0 213.5 -35.5t137.5 -91.5q57 53 152 90t208 37q171 0 274 -95.5t103 -256.5v-774h-170v760q0 105 -67 166t-173 61q-152 0 -239 -94v-893h-170v786q0 93 -70.5 147t-187.5 54q-126 0 -219 -39v-948h-172z" />
<glyph unicode="n" horiz-adv-x="1144" d="M150 0v1049q181 77 405 77q216 0 328 -95.5t112 -270.5v-760h-170v745q0 113 -68.5 177.5t-199.5 64.5q-132 0 -235 -39v-948h-172z" />
<glyph unicode="o" horiz-adv-x="1155" d="M109 553q0 254 123.5 413.5t345.5 159.5t345.5 -159.5t123.5 -413.5q0 -124 -31 -228.5t-89 -182t-147.5 -121.5t-201.5 -44t-201.5 44t-147.5 121.5t-89 182t-31 228.5zM279 555q0 -198 76.5 -317t222.5 -119t222.5 119t76.5 317q0 197 -76.5 314.5t-222.5 117.5 t-222.5 -117.5t-76.5 -314.5z" />
<glyph unicode="p" horiz-adv-x="1136" d="M150 -440v1489q58 31 157.5 54t198.5 23q249 0 386.5 -151.5t137.5 -411.5t-135 -417.5t-377 -157.5q-114 0 -196 28v-456h-172zM322 152q26 -11 80.5 -20t103.5 -9q168 0 260 121.5t92 318.5q0 196 -91.5 311t-258.5 115q-52 0 -105 -11t-81 -26v-800z" />
<glyph unicode="q" horiz-adv-x="1136" d="M109 530q0 152 39 268t110.5 187t167 106t213.5 35q97 0 189 -21.5t159 -55.5v-1489h-170v473q-103 -49 -231 -49q-216 0 -346.5 146.5t-130.5 399.5zM279 543q0 -196 90 -309t241 -113q126 0 207 43v788q-76 37 -186 37q-158 0 -255 -110t-97 -336z" />
<glyph unicode="r" horiz-adv-x="722" d="M150 0v1049q77 35 184.5 56t218.5 21q47 0 109 -8l-33 -143q-39 8 -99 8q-130 0 -208 -35v-948h-172z" />
<glyph unicode="s" horiz-adv-x="927" d="M86 55l61 131q46 -27 123.5 -48t141.5 -21q106 0 170.5 48.5t64.5 129.5q0 42 -15.5 74.5t-49 57t-68 41t-90.5 36.5t-93 36.5t-82 45t-71.5 60t-44.5 78.5t-18 105q0 132 97.5 214.5t268.5 82.5q180 0 307 -77l-59 -121q-41 27 -105.5 46t-125.5 19q-97 0 -153 -46.5 t-56 -117.5q0 -42 14.5 -73.5t47.5 -55t64.5 -38.5t86.5 -35q44 -16 70.5 -27t64.5 -29.5t61.5 -35t50.5 -42t41.5 -53t24.5 -65t10 -80.5q0 -145 -109.5 -231.5t-301.5 -86.5q-86 0 -175.5 22t-152.5 56z" />
<glyph unicode="t" horiz-adv-x="710" d="M68 975v129h159v266l166 55v-321h238v-129h-238v-680q0 -80 46.5 -118t119.5 -38q43 0 72 11v-144q-41 -18 -113 -18q-138 0 -214.5 75.5t-76.5 223.5v688h-159z" />
<glyph unicode="u" horiz-adv-x="1128" d="M150 365v739h172v-742q0 -123 62.5 -182t190.5 -59q146 0 234 37v946h170v-1049q-66 -34 -176.5 -56t-227.5 -22q-425 0 -425 388z" />
<glyph unicode="v" horiz-adv-x="1126" d="M61 1104h187l266 -785q12 -34 23.5 -75t17.5 -66l6 -24h4q20 89 47 165l265 785h188l-403 -1104h-197z" />
<glyph unicode="w" horiz-adv-x="1693" d="M76 1104h172l217 -780q9 -33 17.5 -75t13.5 -67l4 -26h4q17 94 37 168l225 780h164l223 -780l39 -168h4q13 94 33 168l219 780h170l-336 -1104h-174l-225 770q-9 31 -17 69t-12 61l-4 22h-4q-15 -82 -35 -152l-225 -770h-174z" />
<glyph unicode="x" horiz-adv-x="1060" d="M47 0l379 573l-350 531h192l260 -416h4l261 416h192l-350 -531l379 -573h-195l-287 455h-4l-286 -455h-195z" />
<glyph unicode="y" horiz-adv-x="1126" d="M61 1104h187l274 -803q11 -32 21 -71.5t14 -63.5l4 -23h4q14 86 39 158l273 803h188l-578 -1544h-178l166 440z" />
<glyph unicode="z" horiz-adv-x="948" d="M66 0l532 965h-500v139h746l-531 -965h547v-139h-794z" />
<glyph unicode="{" horiz-adv-x="749" d="M86 532v144q79 6 125.5 64.5t46.5 154.5q0 81 -18.5 184t-18.5 193q0 159 87 247.5t247 88.5h68v-138h-48q-89 0 -138.5 -51t-49.5 -147q0 -88 19.5 -192t19.5 -185q0 -114 -48 -187t-134 -102v-4q86 -29 134 -102t48 -187q0 -81 -19.5 -184.5t-19.5 -191.5 q0 -96 49.5 -147.5t138.5 -51.5h48v-137h-68q-160 0 -247 88.5t-87 247.5q0 89 18.5 192t18.5 184q0 96 -46.5 154.5t-125.5 64.5z" />
<glyph unicode="|" horiz-adv-x="491" d="M160 -440v2048h172v-2048h-172z" />
<glyph unicode="}" horiz-adv-x="749" d="M127 -262h47q88 0 137 51.5t49 147.5q0 88 -18 191.5t-18 184.5q0 114 47.5 187.5t132.5 101.5v4q-85 28 -132.5 101.5t-47.5 187.5q0 81 18 185t18 192q0 96 -48.5 147t-137.5 51h-47v138h66q160 0 246.5 -88.5t86.5 -247.5q0 -90 -18.5 -193t-18.5 -184 q0 -96 48 -154.5t127 -64.5v-144q-79 -6 -127 -64.5t-48 -154.5q0 -81 18.5 -184t18.5 -192q0 -159 -86.5 -247.5t-246.5 -88.5h-66v137z" />
<glyph unicode="~" horiz-adv-x="1193" d="M164 674q25 90 91 145t157 55q50 0 101 -19.5t86 -42.5t80.5 -42.5t86.5 -19.5q59 0 103 34.5t67 92.5l96 -70q-26 -90 -91.5 -145.5t-156.5 -55.5q-50 0 -101 19.5t-86 43t-80.5 43t-86.5 19.5q-60 0 -104.5 -34.5t-67.5 -92.5z" />
<glyph unicode="&#xa1;" horiz-adv-x="563" d="M164 938q0 50 35 84.5t84 34.5t82.5 -34.5t33.5 -84.5t-33.5 -84.5t-82.5 -34.5t-84 34.5t-35 84.5zM182 -440l25 1005h149l25 -1005h-199z" />
<glyph unicode="&#xa2;" horiz-adv-x="980" d="M135 809q0 124 33 223t91 161.5t128.5 98.5t151.5 47l-17 269h144l-19 -265q135 -6 234 -69l-58 -121q-82 55 -196 55q-62 0 -116.5 -22.5t-100.5 -68t-72.5 -125t-26.5 -183.5t27 -183.5t73 -125t100.5 -68t115.5 -22.5q117 0 196 53l58 -121q-104 -66 -234 -72l19 -270 h-144l19 274q-81 10 -152 47t-129 100.5t-91.5 163.5t-33.5 224z" />
<glyph unicode="&#xa3;" horiz-adv-x="1316" d="M139 0q299 299 299 561q0 89 -24 166h-228v131h193q-41 125 -41 232q0 191 131 303t350 112q192 0 330 -78l-59 -137q-43 25 -113 43.5t-141 18.5q-149 0 -237.5 -73.5t-88.5 -197.5q0 -46 7 -90.5t13.5 -66t20.5 -66.5h414v-131h-383q20 -75 20 -166q0 -115 -52 -221.5 t-124 -187.5h729v-152h-1016z" />
<glyph unicode="&#xa4;" horiz-adv-x="1398" d="M135 160l211 229q-74 120 -74 273q0 150 74 270l-211 231l115 99l201 -218q103 86 249 86q145 0 248 -86l203 218l115 -99l-211 -231q71 -115 71 -270q0 -158 -71 -273l211 -229l-115 -99l-203 218q-103 -86 -248 -86q-146 0 -249 86l-201 -218zM426 662 q0 -147 73.5 -240.5t200.5 -93.5t201 94t74 240t-73.5 239.5t-201.5 93.5q-127 0 -200.5 -93.5t-73.5 -239.5z" />
<glyph unicode="&#xa5;" horiz-adv-x="1402" d="M139 1483h193l366 -701h4l367 701h193l-283 -522h256v-101h-309l-140 -248h449v-102h-449v-510h-172v510h-448v102h448l-137 248h-311v101h258z" />
<glyph unicode="&#xa6;" horiz-adv-x="491" d="M160 379h172v-819h-172v819zM160 788v820h172v-820h-172z" />
<glyph unicode="&#xa7;" horiz-adv-x="1204" d="M133 604q0 62 19.5 116.5t55 97.5t74 75t87.5 63q-95 92 -95 220q0 150 106.5 239.5t276.5 89.5q182 0 310 -78l-56 -127q-101 64 -239 64q-104 0 -167 -51.5t-63 -141.5q0 -110 117 -182l291 -182q111 -70 166 -152.5t55 -189.5t-71.5 -197.5t-170.5 -148.5 q125 -109 125 -256q0 -144 -107 -235t-286 -91q-89 0 -183 22.5t-149 55.5l58 135q43 -26 120 -46.5t142 -20.5q109 0 172 51t63 137q0 116 -131 197l-299 188q-110 69 -165.5 153.5t-55.5 194.5zM289 610q0 -139 149 -231l281 -176q82 45 137 111t55 143q0 79 -38 134 t-119 107l-279 176q-186 -105 -186 -264z" />
<glyph unicode="&#xa8;" horiz-adv-x="634" d="M29 1370q0 38 29 66t69 28t69 -28t29 -66t-29 -66t-69 -28t-69 28t-29 66zM410 1370q0 38 29 66t69 28t69 -28t29 -66t-29 -66t-69 -28t-69 28t-29 66z" />
<glyph unicode="&#xa9;" horiz-adv-x="1785" d="M125 741q0 157 59.5 298t161.5 243.5t244.5 162.5t302.5 60t302.5 -60t244.5 -162.5t161.5 -243.5t59.5 -298t-59.5 -298t-161.5 -243.5t-244.5 -162.5t-302.5 -60t-302.5 60t-244.5 162.5t-161.5 243.5t-59.5 298zM248 741q0 -179 84.5 -328.5t233 -237t327.5 -87.5 t327.5 87.5t233 237t84.5 328.5t-84.5 329t-233 237.5t-327.5 87.5t-327.5 -87.5t-233 -237.5t-84.5 -329zM528 748q0 107 30.5 191.5t84 136.5t122 79t148.5 27q131 0 217 -58l-47 -92q-70 47 -161 47q-113 0 -189 -82t-76 -249t76 -249.5t189 -82.5q94 0 161 45l47 -92 q-89 -60 -217 -60q-80 0 -148.5 27.5t-122 80.5t-84 138.5t-30.5 192.5z" />
<glyph unicode="&#xaa;" horiz-adv-x="897" d="M90 911q0 65 29.5 113.5t75.5 77.5t118 48t139.5 27t157.5 13v59q0 150 -198 150q-116 0 -232 -51l-37 96q134 57 283 57q322 0 322 -270v-512q-46 -23 -131 -39t-168 -16q-177 0 -268 64.5t-91 182.5zM225 915q0 -70 58 -110.5t161 -40.5q44 0 93 8t73 19v305 q-60 -3 -102 -6.5t-90 -11t-79.5 -20.5t-59.5 -31.5t-41 -46.5t-13 -65z" />
<glyph unicode="&#xab;" horiz-adv-x="1202" d="M125 625l375 495l106 -82l-315 -413l315 -414l-106 -82zM573 625l377 495l105 -82l-316 -413l316 -414l-105 -82z" />
<glyph unicode="&#xac;" d="M145 596v139h867v-549h-150v410h-717z" />
<glyph unicode="&#xad;" horiz-adv-x="841" d="M143 590v151h555v-151h-555z" />
<glyph unicode="&#xae;" horiz-adv-x="1380" d="M117 940q0 117 44.5 222.5t120.5 181.5t182.5 120.5t225.5 44.5q159 0 291 -75.5t207.5 -206.5t75.5 -287t-75.5 -287t-207.5 -206.5t-291 -75.5q-119 0 -225.5 44.5t-182.5 120.5t-120.5 181.5t-44.5 222.5zM217 940q0 -200 136.5 -338.5t336.5 -138.5t336.5 138.5 t136.5 338.5t-136.5 338.5t-336.5 138.5t-336.5 -138.5t-136.5 -338.5zM485 629v610q82 37 189 37q118 0 183 -48.5t65 -135.5q0 -64 -40 -105t-104 -57v-4q39 -22 62 -66l118 -231h-108l-107 213q-15 31 -37.5 44t-60.5 13h-61v-270h-99zM584 975h78q81 0 121 27.5t40 87.5 q0 106 -147 106q-54 0 -92 -10v-211z" />
<glyph unicode="&#xaf;" horiz-adv-x="632" d="M61 1294v117h510v-117h-510z" />
<glyph unicode="&#xb0;" horiz-adv-x="948" d="M117 1151q0 147 104 249.5t254 102.5t254.5 -102.5t104.5 -249.5q0 -146 -104 -248t-255 -102q-150 0 -254 101.5t-104 248.5zM248 1151q0 -94 66.5 -160.5t160.5 -66.5t160.5 66.5t66.5 160.5t-66.5 161.5t-160.5 67.5t-160.5 -67.5t-66.5 -161.5z" />
<glyph unicode="&#xb1;" d="M145 0v131h867v-131h-867zM145 684v131h361v352h147v-352h359v-131h-359v-352h-147v352h-361z" />
<glyph unicode="&#xb2;" horiz-adv-x="753" d="M31 1024l385 438q30 35 47 58.5t32 57.5t15 67q0 74 -48.5 117.5t-139.5 43.5q-102 0 -203 -43l-37 97q117 49 246 49q148 0 228.5 -70t80.5 -188q0 -117 -125 -250l-256 -273h399v-104h-624z" />
<glyph unicode="&#xb3;" horiz-adv-x="753" d="M63 1057l41 96q90 -41 211 -41q100 0 155.5 41t55.5 117q0 78 -72 122t-196 44h-31v90q124 7 194.5 50t70.5 107q0 123 -170 123q-103 0 -197 -43l-43 97q117 49 250 49q134 0 208 -58t74 -161q0 -65 -45.5 -114.5t-113.5 -76.5v-4q81 -24 137.5 -80t56.5 -145 q0 -120 -90 -191t-244 -71q-142 0 -252 49z" />
<glyph unicode="&#xb4;" horiz-adv-x="632" d="M207 1235l151 266q44 47 105 47q28 0 49 -12.5t27 -34.5l-205 -266h-127z" />
<glyph unicode="&#xb5;" horiz-adv-x="1128" d="M150 -440v1544h169v-920q46 -31 117.5 -49t141.5 -18q64 0 127.5 18t103.5 47v922h170v-1016q-70 -52 -167 -81.5t-200 -29.5q-167 0 -293 68v-485h-169z" />
<glyph unicode="&#xb6;" horiz-adv-x="1202" d="M123 1073q0 210 132 321t361 111q243 0 420 -78v-1867h-133v1775q-96 41 -256 41l-45 -2v-1814h-133v1104q-159 29 -252.5 134.5t-93.5 274.5z" />
<glyph unicode="&#xb7;" horiz-adv-x="516" d="M139 666q0 49 34.5 83.5t84.5 34.5t84.5 -34.5t34.5 -83.5q0 -50 -34.5 -84.5t-84.5 -34.5t-84.5 34.5t-34.5 84.5z" />
<glyph unicode="&#xb8;" horiz-adv-x="632" d="M68 -412l45 84q55 -6 106 -6q91 0 145 20t54 58q0 33 -31 47t-96 14q-49 0 -111 -6l41 80q59 6 105 6q227 0 227 -141q0 -81 -85.5 -122.5t-244.5 -41.5q-82 0 -155 8z" />
<glyph unicode="&#xb9;" horiz-adv-x="753" d="M131 1757q89 15 175.5 51t131.5 84h94v-868h-122v721q-41 -25 -114 -49.5t-142 -36.5z" />
<glyph unicode="&#xba;" horiz-adv-x="950" d="M109 1083q0 186 96 302t270 116t270.5 -116t96.5 -302t-96.5 -302.5t-270.5 -116.5t-270 116.5t-96 302.5zM250 1083q0 -139 58 -222t167 -83t167 83t58 222t-58 222.5t-167 83.5t-167 -83.5t-58 -222.5z" />
<glyph unicode="&#xbb;" horiz-adv-x="1202" d="M147 211l316 414l-316 413l107 82l375 -495l-375 -496zM596 211l315 414l-315 413l106 82l375 -495l-375 -496z" />
<glyph unicode="&#xbc;" horiz-adv-x="1714" d="M47 1348q89 15 175.5 51t131.5 84h95v-869h-123v721q-41 -25 -114 -49.5t-142 -36.5zM403 29l785 1480l98 -55l-784 -1481zM985 223v90l391 555h131v-555h101v-90h-101v-223h-112v223h-410zM1098 313h301v346l4 101h-4q-22 -47 -49 -86z" />
<glyph unicode="&#xbd;" horiz-adv-x="1714" d="M47 1348q89 15 175.5 51t131.5 84h95v-869h-123v721q-41 -25 -114 -49.5t-142 -36.5zM352 29l785 1480l98 -55l-784 -1481zM993 0l387 438q31 36 48 58.5t32 57t15 67.5q0 74 -49.5 117.5t-141.5 43.5q-102 0 -203 -43l-37 97q117 49 246 49q148 0 228.5 -70t80.5 -188 t-124 -250l-256 -273h401v-104h-627z" />
<glyph unicode="&#xbe;" horiz-adv-x="1714" d="M59 647l41 96q90 -41 211 -41q100 0 155.5 41t55.5 117q0 78 -72 122t-196 44h-31v90q124 7 194 50.5t70 107.5q0 123 -170 123q-102 0 -196 -43l-43 96q117 49 250 49q134 0 208 -58t74 -161q0 -64 -45.5 -113.5t-113.5 -76.5v-5q81 -24 137.5 -80t56.5 -145 q0 -120 -90 -191t-244 -71q-142 0 -252 49zM459 29l786 1480l96 -55l-784 -1481zM985 223v90l391 555h131v-555h101v-90h-101v-223h-112v223h-410zM1098 313h301v346l4 101h-4q-22 -47 -49 -86z" />
<glyph unicode="&#xbf;" horiz-adv-x="978" d="M98 -90q0 73 32.5 139t86.5 114t112.5 81.5t119.5 54.5l10 266h143l14 -356q-142 -36 -238.5 -111.5t-96.5 -181.5q0 -111 72.5 -172t215.5 -61q74 0 153 18.5t134 46.5l57 -133q-68 -35 -166 -56.5t-196 -21.5q-216 0 -334.5 99t-118.5 274zM412 938q0 50 34.5 84.5 t83.5 34.5t83 -34.5t34 -84.5t-34 -84.5t-83 -34.5t-83.5 34.5t-34.5 84.5z" />
<glyph unicode="&#xc0;" horiz-adv-x="1343" d="M41 0l530 1483h203l529 -1483h-185l-151 432h-590l-150 -432h-186zM418 567h508l-207 600q-12 36 -23 78.5t-16 66.5l-6 25h-4q-18 -90 -45 -170zM418 1880q6 22 27 34.5t49 12.5q60 0 104 -47l152 -266h-127z" />
<glyph unicode="&#xc1;" horiz-adv-x="1343" d="M41 0l530 1483h203l529 -1483h-185l-151 432h-590l-150 -432h-186zM418 567h508l-207 600q-12 36 -23 78.5t-16 66.5l-6 25h-4q-18 -90 -45 -170zM596 1614l152 266q44 47 104 47q28 0 49 -12.5t27 -34.5l-205 -266h-127z" />
<glyph unicode="&#xc2;" horiz-adv-x="1343" d="M41 0l530 1483h203l529 -1483h-185l-151 432h-590l-150 -432h-186zM393 1667l205 207q35 35 74 35q36 0 71 -35l205 -207l-74 -63l-202 180l-205 -180zM418 567h508l-207 600q-12 36 -23 78.5t-16 66.5l-6 25h-4q-18 -90 -45 -170z" />
<glyph unicode="&#xc3;" horiz-adv-x="1343" d="M41 0l530 1483h203l529 -1483h-185l-151 432h-590l-150 -432h-186zM393 1686q11 76 53.5 124t110.5 48q36 0 67.5 -16t51 -34.5t45 -34.5t49.5 -16q37 0 61.5 30t32.5 77l88 -54q-11 -76 -54 -125t-110 -49q-36 0 -67.5 16t-51 35.5t-45 35.5t-49.5 16q-37 0 -61.5 -30 t-32.5 -77zM418 567h508l-207 600q-12 36 -23 78.5t-16 66.5l-6 25h-4q-18 -90 -45 -170z" />
<glyph unicode="&#xc4;" horiz-adv-x="1343" d="M41 0l530 1483h203l529 -1483h-185l-151 432h-590l-150 -432h-186zM385 1749q0 38 29 66t69 28t69.5 -28t29.5 -66t-29.5 -66t-69.5 -28t-69 28t-29 66zM418 567h508l-207 600q-12 36 -23 78.5t-16 66.5l-6 25h-4q-18 -90 -45 -170zM762 1749q0 38 29 66t69 28t69 -28 t29 -66t-29 -66t-69 -28t-69 28t-29 66z" />
<glyph unicode="&#xc5;" horiz-adv-x="1343" d="M41 0l530 1483h203l529 -1483h-185l-151 432h-590l-150 -432h-186zM418 567h508l-207 600q-12 36 -23 78.5t-16 66.5l-6 25h-4q-18 -90 -45 -170zM481 1782q0 76 56.5 129t136.5 53t135 -53t55 -129q0 -77 -55.5 -131t-134.5 -54q-80 0 -136.5 54.5t-56.5 130.5z M567 1782q0 -43 32 -74t75 -31t73.5 31t30.5 74t-30.5 72.5t-73.5 29.5t-75 -30t-32 -72z" />
<glyph unicode="&#xc6;" horiz-adv-x="1841" d="M-6 0l729 1483h885v-152h-652l113 -495h518v-148h-487l123 -536h536v-152h-686l-90 432h-588l-211 -432h-190zM451 567h510l-125 600q-7 36 -13.5 78.5t-8.5 66.5l-3 25h-4q-27 -90 -66 -170z" />
<glyph unicode="&#xc7;" horiz-adv-x="1105" d="M117 741q0 189 46 337.5t126 240.5t183.5 139t223.5 47q96 0 180.5 -21.5t137.5 -56.5l-60 -143q-39 28 -103.5 47t-137.5 19q-87 0 -161 -37t-131 -109.5t-89.5 -190.5t-32.5 -270t32.5 -270t89.5 -191t131 -110t161 -37q73 0 137.5 19t103.5 47l60 -146 q-53 -35 -137 -56.5t-181 -21.5q-120 0 -223.5 47t-183.5 139t-126 240.5t-46 337.5zM330 -412l45 84q55 -6 106 -6q91 0 145 20t54 58q0 33 -31 47t-96 14q-49 0 -111 -6l41 80q59 6 105 6q227 0 227 -141q0 -81 -85.5 -122.5t-244.5 -41.5q-82 0 -155 8z" />
<glyph unicode="&#xc8;" horiz-adv-x="1032" d="M162 0v1483h768v-152h-594v-495h547v-148h-547v-536h594v-152h-768zM303 1880q6 22 27 34.5t49 12.5q60 0 104 -47l152 -266h-127z" />
<glyph unicode="&#xc9;" horiz-adv-x="1032" d="M162 0v1483h768v-152h-594v-495h547v-148h-547v-536h594v-152h-768zM444 1614l152 266q44 47 104 47q28 0 49 -12.5t27 -34.5l-205 -266h-127z" />
<glyph unicode="&#xca;" horiz-adv-x="1032" d="M162 0v1483h768v-152h-594v-495h547v-148h-547v-536h594v-152h-768zM262 1667l205 207q35 35 74 35q36 0 71 -35l205 -207l-74 -63l-202 180l-205 -180z" />
<glyph unicode="&#xcb;" horiz-adv-x="1032" d="M162 0v1483h768v-152h-594v-495h547v-148h-547v-536h594v-152h-768zM256 1749q0 38 29 66t69 28t69.5 -28t29.5 -66t-29.5 -66t-69.5 -28t-69 28t-29 66zM633 1749q0 38 29 66t69 28t69 -28t29 -66t-29 -66t-69 -28t-69 28t-29 66z" />
<glyph unicode="&#xcc;" horiz-adv-x="507" d="M18 1880q6 22 27 34.5t49 12.5q61 0 105 -47l151 -266h-127zM168 0v1483h176v-1483h-176z" />
<glyph unicode="&#xcd;" horiz-adv-x="507" d="M158 1614l151 266q44 47 105 47q28 0 48.5 -12.5t26.5 -34.5l-204 -266h-127zM166 0v1483h176v-1483h-176z" />
<glyph unicode="&#xce;" horiz-adv-x="507" d="M-25 1667l205 207q35 35 74 35q37 0 72 -35l204 -207l-73 -63l-203 180l-205 -180zM166 0v1483h176v-1483h-176z" />
<glyph unicode="&#xcf;" horiz-adv-x="507" d="M-33 1749q0 38 29.5 66t69.5 28t69 -28t29 -66t-29 -66t-69 -28t-69.5 28t-29.5 66zM166 0v1483h176v-1483h-176zM344 1749q0 38 29 66t69 28t69.5 -28t29.5 -66t-29.5 -66t-69.5 -28t-69 28t-29 66z" />
<glyph unicode="&#xd0;" horiz-adv-x="1323" d="M57 692v133h125v602q156 78 385 78q140 0 256.5 -48.5t202.5 -141.5t134 -240t48 -334t-48 -334t-134 -240t-202.5 -141.5t-256.5 -48.5q-114 0 -218 22t-167 56v637h-125zM358 162q64 -33 217 -33q98 0 179 36t144 108.5t98.5 192t35.5 275.5q0 125 -23 227.5 t-64.5 173.5t-99 119t-125.5 70.5t-145 22.5q-145 0 -217 -35v-494h260v-133h-260v-530z" />
<glyph unicode="&#xd1;" horiz-adv-x="1409" d="M162 0v1483h174l668 -1067q21 -33 42.5 -73.5t32.5 -64.5l11 -24h4q-2 98 -2 186v1043h155v-1483h-166l-678 1087q-21 34 -42.5 74.5t-32.5 64.5l-11 23h-4q4 -94 4 -180v-1069h-155zM424 1686q11 76 53.5 124t110.5 48q36 0 67.5 -16t51 -34.5t45 -34.5t49.5 -16 q37 0 61.5 30t32.5 77l88 -54q-11 -76 -54 -125t-110 -49q-36 0 -67.5 16t-51 35.5t-45 35.5t-49.5 16q-37 0 -61.5 -30t-32.5 -77z" />
<glyph unicode="&#xd2;" horiz-adv-x="1368" d="M117 741q0 160 36 297.5t105 242.5t178.5 164.5t247.5 59.5t247.5 -59.5t178.5 -164.5t105 -242.5t36 -297.5t-36 -297.5t-105 -242.5t-178.5 -164.5t-247.5 -59.5t-247.5 59.5t-178.5 164.5t-105 242.5t-36 297.5zM293 741q0 -174 43 -309t133 -216t215 -81t215 81 t133 216t43 309t-43 309t-133 216.5t-215 81.5t-215 -81.5t-133 -216.5t-43 -309zM446 1880q6 22 27 34.5t49 12.5q61 0 105 -47l151 -266h-127z" />
<glyph unicode="&#xd3;" horiz-adv-x="1368" d="M117 741q0 160 36 297.5t105 242.5t178.5 164.5t247.5 59.5t247.5 -59.5t178.5 -164.5t105 -242.5t36 -297.5t-36 -297.5t-105 -242.5t-178.5 -164.5t-247.5 -59.5t-247.5 59.5t-178.5 164.5t-105 242.5t-36 297.5zM293 741q0 -174 43 -309t133 -216t215 -81t215 81 t133 216t43 309t-43 309t-133 216.5t-215 81.5t-215 -81.5t-133 -216.5t-43 -309zM584 1614l151 266q44 47 105 47q28 0 48.5 -12.5t26.5 -34.5l-204 -266h-127z" />
<glyph unicode="&#xd4;" horiz-adv-x="1368" d="M117 741q0 160 36 297.5t105 242.5t178.5 164.5t247.5 59.5t247.5 -59.5t178.5 -164.5t105 -242.5t36 -297.5t-36 -297.5t-105 -242.5t-178.5 -164.5t-247.5 -59.5t-247.5 59.5t-178.5 164.5t-105 242.5t-36 297.5zM293 741q0 -174 43 -309t133 -216t215 -81t215 81 t133 216t43 309t-43 309t-133 216.5t-215 81.5t-215 -81.5t-133 -216.5t-43 -309zM403 1667l205 207q35 35 74 35q37 0 72 -35l204 -207l-73 -63l-203 180l-205 -180z" />
<glyph unicode="&#xd5;" horiz-adv-x="1368" d="M117 741q0 160 36 297.5t105 242.5t178.5 164.5t247.5 59.5t247.5 -59.5t178.5 -164.5t105 -242.5t36 -297.5t-36 -297.5t-105 -242.5t-178.5 -164.5t-247.5 -59.5t-247.5 59.5t-178.5 164.5t-105 242.5t-36 297.5zM293 741q0 -174 43 -309t133 -216t215 -81t215 81 t133 216t43 309t-43 309t-133 216.5t-215 81.5t-215 -81.5t-133 -216.5t-43 -309zM393 1686q11 76 53.5 124t110.5 48q36 0 67.5 -16t51 -34.5t45 -34.5t49.5 -16q37 0 61.5 30t32.5 77l88 -54q-11 -76 -54 -125t-110 -49q-36 0 -67.5 16t-51 35.5t-45 35.5t-49.5 16 q-37 0 -61.5 -30t-32.5 -77z" />
<glyph unicode="&#xd6;" horiz-adv-x="1368" d="M117 741q0 160 36 297.5t105 242.5t178.5 164.5t247.5 59.5t247.5 -59.5t178.5 -164.5t105 -242.5t36 -297.5t-36 -297.5t-105 -242.5t-178.5 -164.5t-247.5 -59.5t-247.5 59.5t-178.5 164.5t-105 242.5t-36 297.5zM293 741q0 -174 43 -309t133 -216t215 -81t215 81 t133 216t43 309t-43 309t-133 216.5t-215 81.5t-215 -81.5t-133 -216.5t-43 -309zM395 1749q0 38 29.5 66t69.5 28t69 -28t29 -66t-29 -66t-69 -28t-69.5 28t-29.5 66zM772 1749q0 38 29 66t69 28t69.5 -28t29.5 -66t-29.5 -66t-69.5 -28t-69 28t-29 66z" />
<glyph unicode="&#xd7;" d="M125 313l352 353l-352 352l100 102l355 -354l354 354l100 -102l-354 -352l354 -353l-100 -102l-354 354l-355 -354z" />
<glyph unicode="&#xd8;" horiz-adv-x="1368" d="M117 741q0 160 36 297.5t105 242.5t178.5 164.5t247.5 59.5q205 0 348 -137l129 201l88 -60l-145 -225q147 -208 147 -543q0 -160 -36 -297.5t-105 -242.5t-178.5 -164.5t-247.5 -59.5q-202 0 -340 129l-135 -208l-90 59l151 233q-74 104 -113.5 246.5t-39.5 304.5z M281 741q0 -239 84 -405l581 901q-104 123 -262 123q-129 0 -221.5 -83t-137 -221t-44.5 -315zM428 238q98 -115 256 -115q129 0 221.5 83t137 220.5t44.5 314.5q0 236 -77 396z" />
<glyph unicode="&#xd9;" horiz-adv-x="1286" d="M162 424v1059h178v-1059q0 -133 86.5 -212t216.5 -79t216.5 79t86.5 212v1059h178v-1059q0 -204 -136.5 -324t-344.5 -120t-344.5 120t-136.5 324zM414 1880q6 22 26.5 34.5t48.5 12.5q61 0 105 -47l151 -266h-127z" />
<glyph unicode="&#xda;" horiz-adv-x="1286" d="M162 424v1059h178v-1059q0 -133 86.5 -212t216.5 -79t216.5 79t86.5 212v1059h178v-1059q0 -204 -136.5 -324t-344.5 -120t-344.5 120t-136.5 324zM543 1614l151 266q44 47 105 47q28 0 48.5 -12.5t26.5 -34.5l-204 -266h-127z" />
<glyph unicode="&#xdb;" horiz-adv-x="1286" d="M162 424v1059h178v-1059q0 -133 86.5 -212t216.5 -79t216.5 79t86.5 212v1059h178v-1059q0 -204 -136.5 -324t-344.5 -120t-344.5 120t-136.5 324zM367 1667l204 207q35 35 74 35q37 0 72 -35l205 -207l-74 -63l-203 180l-205 -180z" />
<glyph unicode="&#xdc;" horiz-adv-x="1286" d="M162 424v1059h178v-1059q0 -133 86.5 -212t216.5 -79t216.5 79t86.5 212v1059h178v-1059q0 -204 -136.5 -324t-344.5 -120t-344.5 120t-136.5 324zM356 1749q0 38 29.5 66t69.5 28t69 -28t29 -66t-29 -66t-69 -28t-69.5 28t-29.5 66zM733 1749q0 38 29 66t69 28t69.5 -28 t29.5 -66t-29.5 -66t-69.5 -28t-69 28t-29 66z" />
<glyph unicode="&#xdd;" horiz-adv-x="1214" d="M47 1483h193l366 -711h4l365 711h192l-471 -889v-594h-178v594zM516 1614l152 266q44 47 104 47q28 0 49 -12.5t27 -34.5l-205 -266h-127z" />
<glyph unicode="&#xde;" horiz-adv-x="1187" d="M162 0v1483h176v-303q83 30 213 30q255 0 391.5 -119t136.5 -331q0 -201 -149.5 -324t-419.5 -123q-105 0 -172 13v-326h-176zM338 465q62 -12 166 -12q192 0 296.5 82.5t104.5 224.5q0 152 -90.5 231.5t-261.5 79.5q-128 0 -215 -33v-573z" />
<glyph unicode="&#xdf;" horiz-adv-x="1286" d="M150 0v1114q0 231 117 372.5t339 141.5q108 0 191.5 -32t135 -89.5t77.5 -132t26 -162.5q0 -86 -24 -178q-252 -17 -252 -178q0 -36 12.5 -64.5t43.5 -55.5t51.5 -41t68.5 -42q47 -28 73.5 -45t66 -50.5t60.5 -65t37.5 -79t16.5 -102.5q0 -150 -105 -239.5t-286 -89.5 q-77 0 -162 19.5t-137 47.5l43 135q42 -24 107.5 -40.5t121.5 -16.5q117 0 180.5 51t63.5 141q0 36 -12 67t-27.5 53t-45.5 45.5t-51 37t-59 35.5q-41 24 -68 42t-61 47t-54 57.5t-34 69.5t-14 87q0 102 70.5 179t205.5 102q6 41 6 76q0 123 -65.5 197.5t-198.5 74.5 q-144 0 -215 -102t-71 -273v-1114h-172z" />
<glyph unicode="&#xe0;" horiz-adv-x="1081" d="M96 315q0 66 20.5 119.5t54 91t86.5 66t107 46t127.5 30t135.5 18.5t143 10v84q0 116 -68.5 165.5t-193.5 49.5q-74 0 -159 -19.5t-142 -47.5l-45 121q69 32 166.5 54.5t193.5 22.5q410 0 410 -360v-711q-60 -33 -167 -55.5t-214 -22.5q-223 0 -339 89t-116 249zM258 319 q0 -99 73.5 -156t215.5 -57q62 0 127.5 10.5t95.5 24.5v437q-82 -5 -125.5 -8.5t-114.5 -13.5t-110 -27t-81.5 -44t-61.5 -69t-19 -97zM336 1501q6 22 27 34.5t49 12.5q60 0 104 -47l152 -266h-127z" />
<glyph unicode="&#xe1;" horiz-adv-x="1081" d="M96 315q0 66 20.5 119.5t54 91t86.5 66t107 46t127.5 30t135.5 18.5t143 10v84q0 116 -68.5 165.5t-193.5 49.5q-74 0 -159 -19.5t-142 -47.5l-45 121q69 32 166.5 54.5t193.5 22.5q410 0 410 -360v-711q-60 -33 -167 -55.5t-214 -22.5q-223 0 -339 89t-116 249zM258 319 q0 -99 73.5 -156t215.5 -57q62 0 127.5 10.5t95.5 24.5v437q-82 -5 -125.5 -8.5t-114.5 -13.5t-110 -27t-81.5 -44t-61.5 -69t-19 -97zM453 1235l151 266q44 47 105 47q28 0 48.5 -12.5t26.5 -34.5l-204 -266h-127z" />
<glyph unicode="&#xe2;" horiz-adv-x="1081" d="M96 315q0 66 20.5 119.5t54 91t86.5 66t107 46t127.5 30t135.5 18.5t143 10v84q0 116 -68.5 165.5t-193.5 49.5q-74 0 -159 -19.5t-142 -47.5l-45 121q69 32 166.5 54.5t193.5 22.5q410 0 410 -360v-711q-60 -33 -167 -55.5t-214 -22.5q-223 0 -339 89t-116 249z M256 1288l205 207q35 35 74 35q36 0 71 -35l205 -207l-74 -63l-202 180l-205 -180zM258 319q0 -99 73.5 -156t215.5 -57q62 0 127.5 10.5t95.5 24.5v437q-82 -5 -125.5 -8.5t-114.5 -13.5t-110 -27t-81.5 -44t-61.5 -69t-19 -97z" />
<glyph unicode="&#xe3;" horiz-adv-x="1081" d="M96 315q0 66 20.5 119.5t54 91t86.5 66t107 46t127.5 30t135.5 18.5t143 10v84q0 116 -68.5 165.5t-193.5 49.5q-74 0 -159 -19.5t-142 -47.5l-45 121q69 32 166.5 54.5t193.5 22.5q410 0 410 -360v-711q-60 -33 -167 -55.5t-214 -22.5q-223 0 -339 89t-116 249zM258 319 q0 -99 73.5 -156t215.5 -57q62 0 127.5 10.5t95.5 24.5v437q-82 -5 -125.5 -8.5t-114.5 -13.5t-110 -27t-81.5 -44t-61.5 -69t-19 -97zM262 1307q11 76 53.5 124t110.5 48q36 0 67.5 -16t51 -34.5t45 -34.5t49.5 -16q37 0 61.5 30t32.5 77l88 -53q-11 -76 -54 -125.5 t-110 -49.5q-36 0 -67.5 16t-51 35.5t-45 35.5t-49.5 16q-37 0 -61.5 -30t-32.5 -77z" />
<glyph unicode="&#xe4;" horiz-adv-x="1081" d="M96 315q0 66 20.5 119.5t54 91t86.5 66t107 46t127.5 30t135.5 18.5t143 10v84q0 116 -68.5 165.5t-193.5 49.5q-74 0 -159 -19.5t-142 -47.5l-45 121q69 32 166.5 54.5t193.5 22.5q410 0 410 -360v-711q-60 -33 -167 -55.5t-214 -22.5q-223 0 -339 89t-116 249zM258 319 q0 -99 73.5 -156t215.5 -57q62 0 127.5 10.5t95.5 24.5v437q-82 -5 -125.5 -8.5t-114.5 -13.5t-110 -27t-81.5 -44t-61.5 -69t-19 -97zM266 1370q0 38 29.5 66t69.5 28t69 -28t29 -66t-29 -66t-69 -28t-69.5 28t-29.5 66zM643 1370q0 38 29 66t69 28t69.5 -28t29.5 -66 t-29.5 -66t-69.5 -28t-69 28t-29 66z" />
<glyph unicode="&#xe5;" horiz-adv-x="1081" d="M96 315q0 66 20.5 119.5t54 91t86.5 66t107 46t127.5 30t135.5 18.5t143 10v84q0 116 -68.5 165.5t-193.5 49.5q-74 0 -159 -19.5t-142 -47.5l-45 121q69 32 166.5 54.5t193.5 22.5q410 0 410 -360v-711q-60 -33 -167 -55.5t-214 -22.5q-223 0 -339 89t-116 249zM258 319 q0 -99 73.5 -156t215.5 -57q62 0 127.5 10.5t95.5 24.5v437q-82 -5 -125.5 -8.5t-114.5 -13.5t-110 -27t-81.5 -44t-61.5 -69t-19 -97zM354 1405q0 76 56.5 129t136.5 53t135 -53t55 -129q0 -77 -55.5 -130.5t-134.5 -53.5q-80 0 -136.5 54t-56.5 130zM440 1405 q0 -43 32 -74t75 -31t73.5 31t30.5 74t-30.5 72.5t-73.5 29.5t-75 -30t-32 -72z" />
<glyph unicode="&#xe6;" horiz-adv-x="1785" d="M96 315q0 66 20.5 119.5t54 91t86.5 66t107 46t127.5 30t135.5 18.5t143 10v84q0 116 -68.5 165.5t-193.5 49.5q-74 0 -159 -19.5t-142 -47.5l-45 121q69 32 165.5 54.5t188.5 22.5q305 0 356 -213q114 213 367 213q203 0 320.5 -129t117.5 -354q0 -40 -2 -63l-751 -109 q15 -174 112 -264t258 -90q82 0 163.5 18t135.5 49l54 -129q-62 -34 -157.5 -56t-201.5 -22q-152 0 -262 62t-156 162q-29 -96 -121.5 -160t-226.5 -64q-204 0 -315 91t-111 247zM258 319q0 -99 67.5 -156t200.5 -57q112 0 178 64t66 164v244q-82 -5 -125.5 -8.5 t-114.5 -13.5t-110 -27t-81.5 -44t-61.5 -69t-19 -97zM911 590l600 86q-1 158 -76 238.5t-204 80.5q-146 0 -231.5 -108.5t-88.5 -296.5z" />
<glyph unicode="&#xe7;" horiz-adv-x="942" d="M109 553q0 146 40 259.5t108.5 180t150.5 100t174 33.5q164 0 274 -75l-59 -125q-80 57 -197 57q-62 0 -116.5 -24t-100 -73t-72 -134.5t-26.5 -196.5t27 -197t72.5 -135.5t100 -74.5t115.5 -25q114 0 197 59l59 -129q-110 -76 -274 -76q-73 0 -140 20.5t-128 66 t-106.5 111t-72 163t-26.5 215.5zM231 -412l45 84q55 -6 107 -6q91 0 145 20t54 58q0 33 -31 47t-96 14q-49 0 -111 -6l41 80q59 6 104 6q228 0 228 -141q0 -81 -85.5 -122.5t-244.5 -41.5q-83 0 -156 8z" />
<glyph unicode="&#xe8;" horiz-adv-x="1138" d="M109 553q0 258 129.5 415.5t351.5 157.5q204 0 322 -126t118 -347q0 -46 -2 -73l-754 -109q13 -174 111 -264t260 -90q83 0 164 18t137 49l53 -129q-62 -35 -159 -56.5t-203 -21.5q-248 0 -388 152.5t-140 423.5zM264 590l602 86q-1 158 -75.5 238.5t-202.5 80.5 q-146 0 -233.5 -109t-90.5 -296zM356 1501q6 22 27 34.5t49 12.5q61 0 105 -47l151 -266h-127z" />
<glyph unicode="&#xe9;" horiz-adv-x="1138" d="M109 553q0 258 129.5 415.5t351.5 157.5q204 0 322 -126t118 -347q0 -46 -2 -73l-754 -109q13 -174 111 -264t260 -90q83 0 164 18t137 49l53 -129q-62 -35 -159 -56.5t-203 -21.5q-248 0 -388 152.5t-140 423.5zM264 590l602 86q-1 158 -75.5 238.5t-202.5 80.5 q-146 0 -233.5 -109t-90.5 -296zM492 1235l151 266q44 47 105 47q28 0 48.5 -12.5t26.5 -34.5l-205 -266h-126z" />
<glyph unicode="&#xea;" horiz-adv-x="1138" d="M109 553q0 258 129.5 415.5t351.5 157.5q204 0 322 -126t118 -347q0 -46 -2 -73l-754 -109q13 -174 111 -264t260 -90q83 0 164 18t137 49l53 -129q-62 -35 -159 -56.5t-203 -21.5q-248 0 -388 152.5t-140 423.5zM264 590l602 86q-1 158 -75.5 238.5t-202.5 80.5 q-146 0 -233.5 -109t-90.5 -296zM303 1288l205 207q35 35 74 35q36 0 71 -35l205 -207l-74 -63l-202 180l-205 -180z" />
<glyph unicode="&#xeb;" horiz-adv-x="1138" d="M109 553q0 258 129.5 415.5t351.5 157.5q204 0 322 -126t118 -347q0 -46 -2 -73l-754 -109q13 -174 111 -264t260 -90q83 0 164 18t137 49l53 -129q-62 -35 -159 -56.5t-203 -21.5q-248 0 -388 152.5t-140 423.5zM264 590l602 86q-1 158 -75.5 238.5t-202.5 80.5 q-146 0 -233.5 -109t-90.5 -296zM291 1370q0 38 29 66t69 28t69 -28t29 -66t-29 -66t-69 -28t-69 28t-29 66zM668 1370q0 38 29 66t69 28t69 -28t29 -66t-29 -66t-69 -28t-69 28t-29 66z" />
<glyph unicode="&#xec;" horiz-adv-x="487" d="M16 1501q6 22 27 34.5t49 12.5q61 0 105 -47l151 -266h-127zM160 0v1104h170v-1104h-170z" />
<glyph unicode="&#xed;" horiz-adv-x="487" d="M139 1235l152 266q44 47 104 47q28 0 49 -12.5t27 -34.5l-205 -266h-127zM160 0v1104h170v-1104h-170z" />
<glyph unicode="&#xee;" horiz-adv-x="487" d="M-33 1288l205 207q35 35 74 35q36 0 71 -35l205 -207l-73 -63l-203 180l-205 -180zM160 0v1104h170v-1104h-170z" />
<glyph unicode="&#xef;" horiz-adv-x="487" d="M-43 1370q0 38 29 66t69 28t69.5 -28t29.5 -66t-29.5 -66t-69.5 -28t-69 28t-29 66zM160 0v1104h170v-1104h-170zM334 1370q0 38 29 66t69 28t69 -28t29 -66t-29 -66t-69 -28t-69 28t-29 66z" />
<glyph unicode="&#xf0;" d="M109 553q0 253 133 407t356 154q84 0 154 -24q-48 104 -136 233l-202 -68l-60 91l199 67q-61 77 -137 160l151 51q67 -74 135 -162l187 62l61 -90l-180 -60q274 -397 274 -821q0 -166 -52 -294.5t-159 -205t-255 -76.5q-112 0 -201.5 44t-147.5 121.5t-89 182t-31 228.5z M279 555q0 -198 76.5 -317t222.5 -119t221 118t75 316t-69 395q-81 33 -189 33q-155 0 -246 -115.5t-91 -310.5z" />
<glyph unicode="&#xf1;" horiz-adv-x="1144" d="M150 0v1049q181 77 405 77q216 0 328 -95.5t112 -270.5v-760h-170v745q0 113 -68.5 177.5t-199.5 64.5q-132 0 -235 -39v-948h-172zM279 1307q11 76 53 124t110 48q36 0 67.5 -16t51 -34.5t45 -34.5t49.5 -16q37 0 62 30.5t33 76.5l88 -53q-11 -76 -54 -125.5t-110 -49.5 q-36 0 -67.5 16t-51 35.5t-45 35.5t-49.5 16q-37 0 -61.5 -30t-32.5 -77z" />
<glyph unicode="&#xf2;" horiz-adv-x="1155" d="M109 553q0 254 123.5 413.5t345.5 159.5t345.5 -159.5t123.5 -413.5q0 -124 -31 -228.5t-89 -182t-147.5 -121.5t-201.5 -44t-201.5 44t-147.5 121.5t-89 182t-31 228.5zM279 555q0 -198 76.5 -317t222.5 -119t222.5 119t76.5 317q0 197 -76.5 314.5t-222.5 117.5 t-222.5 -117.5t-76.5 -314.5zM336 1501q6 22 27 34.5t49 12.5q60 0 104 -47l152 -266h-127z" />
<glyph unicode="&#xf3;" horiz-adv-x="1155" d="M109 553q0 254 123.5 413.5t345.5 159.5t345.5 -159.5t123.5 -413.5q0 -124 -31 -228.5t-89 -182t-147.5 -121.5t-201.5 -44t-201.5 44t-147.5 121.5t-89 182t-31 228.5zM279 555q0 -198 76.5 -317t222.5 -119t222.5 119t76.5 317q0 197 -76.5 314.5t-222.5 117.5 t-222.5 -117.5t-76.5 -314.5zM477 1235l152 266q44 47 104 47q28 0 49 -12.5t27 -34.5l-205 -266h-127z" />
<glyph unicode="&#xf4;" horiz-adv-x="1155" d="M109 553q0 254 123.5 413.5t345.5 159.5t345.5 -159.5t123.5 -413.5q0 -124 -31 -228.5t-89 -182t-147.5 -121.5t-201.5 -44t-201.5 44t-147.5 121.5t-89 182t-31 228.5zM279 555q0 -198 76.5 -317t222.5 -119t222.5 119t76.5 317q0 197 -76.5 314.5t-222.5 117.5 t-222.5 -117.5t-76.5 -314.5zM301 1288l205 207q35 35 74 35q36 0 71 -35l205 -207l-74 -63l-202 180l-205 -180z" />
<glyph unicode="&#xf5;" horiz-adv-x="1155" d="M109 553q0 254 123.5 413.5t345.5 159.5t345.5 -159.5t123.5 -413.5q0 -124 -31 -228.5t-89 -182t-147.5 -121.5t-201.5 -44t-201.5 44t-147.5 121.5t-89 182t-31 228.5zM279 555q0 -198 76.5 -317t222.5 -119t222.5 119t76.5 317q0 197 -76.5 314.5t-222.5 117.5 t-222.5 -117.5t-76.5 -314.5zM287 1307q11 76 53.5 124t110.5 48q36 0 67.5 -16t51 -34.5t45 -34.5t49.5 -16q37 0 61.5 30t32.5 77l88 -53q-11 -76 -54 -125.5t-110 -49.5q-36 0 -67.5 16t-51 35.5t-45 35.5t-49.5 16q-37 0 -61.5 -30t-32.5 -77z" />
<glyph unicode="&#xf6;" horiz-adv-x="1155" d="M109 553q0 254 123.5 413.5t345.5 159.5t345.5 -159.5t123.5 -413.5q0 -124 -31 -228.5t-89 -182t-147.5 -121.5t-201.5 -44t-201.5 44t-147.5 121.5t-89 182t-31 228.5zM279 555q0 -198 76.5 -317t222.5 -119t222.5 119t76.5 317q0 197 -76.5 314.5t-222.5 117.5 t-222.5 -117.5t-76.5 -314.5zM291 1370q0 38 29 66t69 28t69 -28t29 -66t-29 -66t-69 -28t-69 28t-29 66zM668 1370q0 38 29 66t69 28t69 -28t29 -66t-29 -66t-69 -28t-69 28t-29 66z" />
<glyph unicode="&#xf7;" d="M145 602v127h867v-127h-867zM477 328q0 43 30 72.5t73 29.5t72.5 -29.5t29.5 -72.5t-29.5 -73t-72.5 -30t-73 30t-30 73zM477 1004q0 43 30 72.5t73 29.5t72.5 -29.5t29.5 -72.5t-29.5 -73t-72.5 -30t-73 30t-30 73z" />
<glyph unicode="&#xf8;" horiz-adv-x="1155" d="M109 553q0 254 123.5 413.5t345.5 159.5q158 0 272 -90l117 172l75 -57l-122 -182q127 -157 127 -416q0 -124 -31 -228.5t-89 -182t-147.5 -121.5t-201.5 -44q-158 0 -273 91l-117 -174l-77 57l127 184q-129 160 -129 418zM264 555q0 -177 60 -291l448 660 q-75 75 -194 75q-78 0 -138.5 -33.5t-98.5 -94t-57.5 -140.5t-19.5 -176zM385 182q79 -76 193 -76q153 0 233 125t80 324q0 170 -60 287z" />
<glyph unicode="&#xf9;" horiz-adv-x="1128" d="M150 365v739h172v-742q0 -123 62.5 -182t190.5 -59q146 0 234 37v946h170v-1049q-66 -34 -176.5 -56t-227.5 -22q-425 0 -425 388zM328 1501q6 22 26.5 34.5t48.5 12.5q61 0 105 -47l151 -266h-127z" />
<glyph unicode="&#xfa;" horiz-adv-x="1128" d="M150 365v739h172v-742q0 -123 62.5 -182t190.5 -59q146 0 234 37v946h170v-1049q-66 -34 -176.5 -56t-227.5 -22q-425 0 -425 388zM469 1235l152 266q44 47 104 47q28 0 49 -12.5t27 -34.5l-205 -266h-127z" />
<glyph unicode="&#xfb;" horiz-adv-x="1128" d="M150 365v739h172v-742q0 -123 62.5 -182t190.5 -59q146 0 234 37v946h170v-1049q-66 -34 -176.5 -56t-227.5 -22q-425 0 -425 388zM287 1288l205 207q35 35 73 35q37 0 72 -35l205 -207l-74 -63l-203 180l-205 -180z" />
<glyph unicode="&#xfc;" horiz-adv-x="1128" d="M150 365v739h172v-742q0 -123 62.5 -182t190.5 -59q146 0 234 37v946h170v-1049q-66 -34 -176.5 -56t-227.5 -22q-425 0 -425 388zM276 1370q0 38 29.5 66t69.5 28t69 -28t29 -66t-29 -66t-69 -28t-69.5 28t-29.5 66zM655 1370q0 38 29.5 66t69.5 28t69 -28t29 -66 t-29 -66t-69 -28t-69.5 28t-29.5 66z" />
<glyph unicode="&#xfd;" horiz-adv-x="1126" d="M61 1104h187l274 -803q11 -32 21 -71.5t14 -63.5l4 -23h4q14 86 39 158l273 803h188l-578 -1544h-178l166 440zM483 1235l152 266q44 47 104 47q28 0 49 -12.5t27 -34.5l-205 -266h-127z" />
<glyph unicode="&#xfe;" horiz-adv-x="1136" d="M150 -440v2048h172v-537q103 49 229 49q216 0 347.5 -148.5t131.5 -404.5q0 -151 -38 -265t-108.5 -183.5t-164 -104t-209.5 -34.5q-96 0 -188 30v-450h-172zM322 152q72 -35 186 -35q159 0 254.5 108t95.5 336q0 197 -89.5 309.5t-240.5 112.5q-125 0 -206 -43v-788z " />
<glyph unicode="&#xff;" horiz-adv-x="1126" d="M61 1104h187l274 -803q11 -32 21 -71.5t14 -63.5l4 -23h4q14 86 39 158l273 803h188l-578 -1544h-178l166 440zM276 1370q0 38 29.5 66t69.5 28t69 -28t29 -66t-29 -66t-69 -28t-69.5 28t-29.5 66zM653 1370q0 38 29.5 66t69.5 28t69 -28t29 -66t-29 -66t-69 -28 t-69.5 28t-29.5 66z" />
<glyph unicode="&#x152;" horiz-adv-x="1837" d="M117 741q0 360 173.5 562t489.5 202q106 0 219 -22h736v-152h-592v-495h545v-148h-545v-536h592v-152h-736q-115 -23 -219 -23q-316 0 -489.5 202t-173.5 562zM293 741q0 -295 127 -453.5t364 -158.5q86 0 185 18v1188q-104 19 -185 19q-237 0 -364 -159t-127 -454z" />
<glyph unicode="&#x153;" horiz-adv-x="1894" d="M109 553q0 254 123.5 413.5t345.5 159.5q139 0 234 -70t142 -196q50 126 151.5 196t240.5 70q206 0 324 -129t118 -354q0 -40 -2 -63l-752 -109q15 -174 112.5 -264t258.5 -90q82 0 163.5 18t135.5 49l51 -129q-62 -34 -157.5 -56t-200.5 -22q-159 0 -271.5 68.5 t-167.5 202.5q-47 -127 -143.5 -199t-236.5 -72q-112 0 -201.5 44t-147.5 121.5t-89 182t-31 228.5zM279 555q0 -198 76.5 -317t222.5 -119t222.5 119t76.5 317q0 197 -76.5 314.5t-222.5 117.5t-222.5 -117.5t-76.5 -314.5zM1022 590l598 86q-1 158 -75.5 238.5 t-203.5 80.5q-146 0 -231 -108.5t-88 -296.5z" />
<glyph unicode="&#x178;" horiz-adv-x="1214" d="M47 1483h193l366 -711h4l365 711h192l-471 -889v-594h-178v594zM319 1749q0 38 29.5 66t69.5 28t69 -28t29 -66t-29 -66t-69 -28t-69.5 28t-29.5 66zM698 1749q0 38 29.5 66t69.5 28t69 -28t29 -66t-29 -66t-69 -28t-69.5 28t-29.5 66z" />
<glyph unicode="&#x2c6;" horiz-adv-x="632" d="M39 1288l205 207q35 35 73 35q37 0 72 -35l205 -207l-74 -63l-203 180l-204 -180z" />
<glyph unicode="&#x2dc;" horiz-adv-x="632" d="M37 1307q11 76 53.5 124t110.5 48q36 0 67.5 -16t51 -34.5t45 -34.5t49.5 -16q37 0 61.5 30t32.5 77l88 -53q-11 -76 -54 -125.5t-110 -49.5q-36 0 -67.5 16t-51 35.5t-45 35.5t-49.5 16q-37 0 -61.5 -30t-32.5 -77z" />
<glyph unicode="&#x2000;" horiz-adv-x="982" />
<glyph unicode="&#x2001;" horiz-adv-x="1964" />
<glyph unicode="&#x2002;" horiz-adv-x="982" />
<glyph unicode="&#x2003;" horiz-adv-x="1964" />
<glyph unicode="&#x2004;" horiz-adv-x="654" />
<glyph unicode="&#x2005;" horiz-adv-x="491" />
<glyph unicode="&#x2006;" horiz-adv-x="327" />
<glyph unicode="&#x2007;" horiz-adv-x="327" />
<glyph unicode="&#x2008;" horiz-adv-x="245" />
<glyph unicode="&#x2009;" horiz-adv-x="392" />
<glyph unicode="&#x200a;" horiz-adv-x="109" />
<glyph unicode="&#x2010;" horiz-adv-x="841" d="M143 590v151h555v-151h-555z" />
<glyph unicode="&#x2011;" horiz-adv-x="841" d="M143 590v151h555v-151h-555z" />
<glyph unicode="&#x2012;" horiz-adv-x="841" d="M143 590v151h555v-151h-555z" />
<glyph unicode="&#x2013;" horiz-adv-x="837" d="M-8 596v139h854v-139h-854z" />
<glyph unicode="&#x2014;" horiz-adv-x="1673" d="M166 596v139h1341v-139h-1341z" />
<glyph unicode="&#x2018;" horiz-adv-x="565" d="M98 1100l244 508h125l-180 -508q-44 -62 -107 -62q-35 0 -57 18.5t-25 43.5z" />
<glyph unicode="&#x2019;" horiz-adv-x="565" d="M98 1051l178 505q44 62 109 62q35 0 57 -18.5t25 -43.5l-246 -505h-123z" />
<glyph unicode="&#x201a;" horiz-adv-x="565" d="M98 -346l178 508q44 61 109 61q35 0 57 -18t25 -43l-246 -508h-123z" />
<glyph unicode="&#x201c;" horiz-adv-x="944" d="M98 1100l244 508h125l-180 -508q-44 -62 -107 -62q-35 0 -57 18.5t-25 43.5zM477 1100l244 508h125l-180 -508q-44 -62 -107 -62q-35 0 -57 18.5t-25 43.5z" />
<glyph unicode="&#x201d;" horiz-adv-x="944" d="M98 1051l178 505q44 62 109 62q35 0 57 -18.5t25 -43.5l-246 -505h-123zM477 1051l178 505q44 62 109 62q35 0 57 -18.5t25 -43.5l-246 -505h-123z" />
<glyph unicode="&#x201e;" horiz-adv-x="944" d="M98 -346l178 508q44 61 109 61q35 0 57 -18t25 -43l-246 -508h-123zM477 -346l178 508q44 61 109 61q35 0 57 -18t25 -43l-246 -508h-123z" />
<glyph unicode="&#x2022;" horiz-adv-x="720" d="M160 666q0 83 58.5 141.5t141.5 58.5t142 -58.5t59 -141.5t-59 -142t-142 -59t-141.5 59t-58.5 142z" />
<glyph unicode="&#x2026;" horiz-adv-x="1544" d="M139 104q0 50 34.5 84.5t84.5 34.5t84.5 -34.5t34.5 -84.5q0 -49 -34.5 -83.5t-84.5 -34.5t-84.5 34.5t-34.5 83.5zM655 104q0 50 34 84.5t83 34.5q50 0 84.5 -34.5t34.5 -84.5q0 -49 -34.5 -83.5t-84.5 -34.5q-49 0 -83 34t-34 84zM1169 104q0 50 34.5 84.5t84.5 34.5 q49 0 83 -34.5t34 -84.5t-34 -84t-83 -34q-50 0 -84.5 34.5t-34.5 83.5z" />
<glyph unicode="&#x202f;" horiz-adv-x="392" />
<glyph unicode="&#x2039;" horiz-adv-x="753" d="M125 625l375 495l106 -82l-315 -413l315 -414l-106 -82z" />
<glyph unicode="&#x203a;" horiz-adv-x="753" d="M147 211l316 414l-316 413l107 82l375 -495l-375 -496z" />
<glyph unicode="&#x205f;" horiz-adv-x="491" />
<glyph unicode="&#x20ac;" horiz-adv-x="1443" d="M131 522v103h217q-6 55 -6 116q0 69 6 131h-217v101h234q55 259 226.5 395.5t405.5 136.5q109 0 202.5 -21.5t152.5 -56.5l-64 -131q-46 28 -123 45t-164 17q-82 0 -154 -23t-134 -68.5t-107.5 -120.5t-68.5 -173h589v-101h-610q-8 -82 -8 -129q0 -44 8 -118h610v-103 h-591q44 -198 169.5 -296.5t296.5 -98.5q186 0 287 61l64 -133q-132 -78 -355 -78q-115 0 -217 34t-186.5 100.5t-145 171.5t-86.5 239h-231z" />
<glyph unicode="&#x2122;" horiz-adv-x="1947" d="M111 1372v111h620v-111h-244v-770h-133v770h-243zM793 602l120 881h166l199 -617q7 -22 14 -48.5t10 -41.5l3 -16h4q10 57 26 106l197 617h166l121 -881h-121l-86 645l-8 109h-5q-12 -60 -28 -109l-209 -645h-113l-209 645q-7 22 -14 49t-10 44l-4 16h-4q-3 -60 -9 -109 l-84 -645h-122z" />
<glyph unicode="&#x25fc;" horiz-adv-x="1105" d="M0 0v1106h1106v-1106h-1106z" />
</font>
</defs>
</svg>
